<svg xmlns="http://www.w3.org/2000/svg" width="56" height="56" viewBox="0 0 56 56" fill="none">
    <rect width="56" height="56" rx="14" fill="#615EF0" />
    <path
        d="M27.979 36.418C25.627 36.418 23.884 35.809 22.75 34.591C21.63 33.359 21.07 31.448 21.07 28.858C21.07 23.874 23.408 21.382 28.084 21.382C28.532 21.382 28.994 21.417 29.47 21.487C29.96 21.543 30.422 21.634 30.856 21.76C31.29 21.872 31.647 22.012 31.927 22.18C32.291 22.39 32.473 22.614 32.473 22.852C32.473 23.048 32.396 23.307 32.242 23.629C32.088 23.937 31.906 24.217 31.696 24.469C31.486 24.707 31.29 24.826 31.108 24.826C31.024 24.826 30.863 24.77 30.625 24.658C30.401 24.546 30.079 24.434 29.659 24.322C29.239 24.21 28.693 24.154 28.021 24.154C26.789 24.154 25.872 24.546 25.27 25.33C24.682 26.114 24.388 27.297 24.388 28.879C24.388 30.447 24.682 31.637 25.27 32.449C25.872 33.261 26.775 33.667 27.979 33.667C28.651 33.667 29.218 33.597 29.68 33.457C30.156 33.317 30.541 33.177 30.835 33.037C31.129 32.897 31.325 32.827 31.423 32.827C31.647 32.827 31.85 32.953 32.032 33.205C32.228 33.457 32.382 33.73 32.494 34.024C32.606 34.318 32.662 34.528 32.662 34.654C32.662 34.85 32.592 35.032 32.452 35.2C32.326 35.354 32.151 35.494 31.927 35.62C31.591 35.802 31.185 35.956 30.709 36.082C30.247 36.194 29.771 36.278 29.281 36.334C28.805 36.39 28.371 36.418 27.979 36.418Z"
        fill="white" />
</svg>